<?xml version="1.0" standalone="no"?>
<!DOCTYPE svg PUBLIC "-//W3C//DTD SVG 20010904//EN"
 "http://www.w3.org/TR/2001/REC-SVG-20010904/DTD/svg10.dtd">
<svg version="1.0" xmlns="http://www.w3.org/2000/svg"
 width="700.000000pt" height="700.000000pt" viewBox="0 0 700.000000 700.000000"
 preserveAspectRatio="xMidYMid meet">
<metadata>
Created by potrace 1.11, written by Peter Selinger 2001-2013
</metadata>
<g transform="translate(0.000000,700.000000) scale(0.100000,-0.100000)"
fill="#000000" stroke="none">
<path d="M244 6153 c-21 -4 -22 -11 -29 -146 -7 -156 7 -452 30 -635 43 -334
120 -604 241 -848 l66 -132 -61 -77 c-204 -257 -369 -564 -457 -855 -41 -134
-41 -146 12 -305 135 -409 364 -766 714 -1115 306 -306 647 -550 1065 -761
658 -332 1324 -481 1918 -428 768 68 1605 426 2246 959 495 411 850 924 991
1429 l24 85 -23 85 c-76 288 -279 675 -483 921 l-54 65 56 110 c156 305 242
672 271 1154 13 210 5 471 -14 483 -18 11 -293 10 -405 -3 -449 -48 -879 -256
-1246 -601 l-90 -84 -125 54 c-257 110 -617 217 -886 261 -332 55 -679 55
-1010 0 -275 -46 -626 -149 -886 -261 l-126 -54 -83 79 c-376 357 -808 566
-1272 616 -93 11 -339 13 -384 4z m2236 -2036 c52 -14 120 -36 150 -50 l55
-26 -50 5 c-104 12 -366 -43 -530 -110 -323 -133 -620 -384 -847 -716 -36 -52
-73 -110 -82 -127 -9 -18 -20 -33 -25 -33 -7 0 -225 342 -237 373 -4 10 29 50
103 124 318 317 669 518 1010 579 121 21 334 12 453 -19z m2545 8 c329 -73
659 -269 959 -569 58 -59 106 -110 106 -114 0 -15 -230 -377 -240 -377 -5 0
-33 39 -63 87 -224 356 -534 631 -874 775 -174 74 -446 133 -552 119 -44 -5
-45 -5 -20 9 44 24 172 64 256 80 97 18 326 13 428 -10z m-2281 -400 c95 -40
156 -135 156 -245 0 -80 -23 -133 -80 -188 -164 -158 -440 -43 -440 183 0 72
13 117 47 162 73 100 203 135 317 88z m1721 1 c133 -56 195 -231 129 -364 -77
-155 -290 -191 -414 -70 -57 54 -80 108 -80 188 0 192 189 319 365 246z m-682
-996 c394 -77 699 -305 805 -602 34 -96 43 -270 17 -366 -85 -328 -409 -585
-845 -667 -131 -25 -389 -25 -520 0 -437 83 -760 338 -845 667 -26 96 -17 270
17 366 107 297 417 529 805 601 153 29 162 30 318 26 89 -2 179 -11 248 -25z"/>
<path d="M3385 2419 c-265 -39 -449 -200 -450 -394 0 -89 27 -148 105 -226
222 -223 698 -223 920 0 75 76 103 136 104 226 1 156 -111 288 -305 357 -124
43 -246 55 -374 37z"/>
</g>
</svg>
