<?xml version="1.0" standalone="no"?>
<!DOCTYPE svg PUBLIC "-//W3C//DTD SVG 20010904//EN"
 "http://www.w3.org/TR/2001/REC-SVG-20010904/DTD/svg10.dtd">
<svg version="1.0" xmlns="http://www.w3.org/2000/svg"
 width="512.000000pt" height="512.000000pt" viewBox="0 0 512.000000 512.000000"
 preserveAspectRatio="xMidYMid meet">
<metadata>
Created by potrace 1.11, written by Peter Selinger 2001-2013
</metadata>
<g transform="translate(0.000000,512.000000) scale(0.100000,-0.100000)"
fill="#000000" stroke="none">
<path d="M216 4503 l-59 -4 6 -257 c6 -277 19 -391 67 -582 36 -144 79 -262
133 -365 l42 -80 -82 -110 c-147 -196 -268 -436 -309 -612 l-18 -73 38 -113
c179 -544 646 -1039 1294 -1368 673 -343 1301 -409 1956 -208 320 99 674 275
936 467 437 321 731 697 866 1109 l38 113 -18 73 c-41 176 -162 415 -309 612
l-82 111 46 92 c98 196 158 438 185 742 19 211 15 426 -7 442 -24 16 -304 2
-415 -21 -298 -61 -562 -202 -786 -419 l-67 -65 -58 26 c-332 149 -724 237
-1053 237 -328 0 -721 -88 -1052 -237 l-58 -26 -85 82 c-213 201 -493 350
-761 406 -80 16 -258 36 -304 33 -14 -1 -51 -3 -84 -5z m1649 -1508 l90 -30
-82 -7 c-206 -17 -425 -101 -602 -232 -131 -96 -298 -278 -382 -418 -23 -38
-44 -68 -48 -68 -8 0 -171 264 -171 277 0 17 191 196 285 266 118 88 322 190
445 222 83 22 112 25 235 22 123 -2 151 -6 230 -32z m1851 10 c127 -32 327
-131 449 -222 94 -70 285 -249 285 -266 0 -13 -163 -277 -171 -277 -4 0 -25
30 -48 68 -84 140 -251 322 -382 418 -177 131 -396 215 -602 232 l-82 7 85 27
c108 34 112 35 251 37 94 1 135 -4 215 -24z m-1711 -284 c103 -48 145 -163 95
-261 -70 -138 -277 -136 -341 4 -73 161 89 330 246 257z m1253 4 c173 -73 156
-323 -26 -363 -180 -41 -309 178 -184 312 56 60 139 80 210 51z m-593 -715
c316 -33 562 -184 668 -409 68 -146 63 -285 -16 -436 -62 -118 -208 -239 -364
-304 -133 -54 -202 -66 -393 -66 -140 0 -190 4 -250 19 -169 43 -299 114 -405
221 -119 119 -171 246 -163 395 19 320 362 571 803 588 17 1 71 -3 120 -8z"/>
<path d="M2490 1770 c-306 -39 -447 -295 -258 -466 241 -217 741 -96 741 180
0 178 -236 318 -483 286z"/>
</g>
</svg>
